<svg width="48" height="48" viewBox="0 0 48 48" fill="none" xmlns="http://www.w3.org/2000/svg">
<path d="M6.97078 3.08275H44.9488C45.5977 3.08275 46.1238 3.60873 46.1238 4.25775V8.51312C46.1238 8.82468 46 9.1236 45.7796 9.34391C42.7599 12.3637 38.745 14.0267 34.4745 14.0267C31.0918 14.0267 27.8696 12.9834 25.1752 11.0487V33.5973C25.1752 34.2462 24.6491 34.7723 24.0002 34.7723C23.3513 34.7723 22.8252 34.2462 22.8252 33.5973V8.51312C22.8252 8.03784 23.1115 7.60937 23.5506 7.42748C23.9897 7.24559 24.495 7.34611 24.831 7.68222C30.0352 12.8864 38.4336 12.997 43.7738 8.01463V5.43274H6.97084C6.32183 5.43274 5.79584 4.90664 5.79584 4.25775C5.79578 3.60879 6.32177 3.08275 6.97078 3.08275Z" fill="#F5810B"/>
<path d="M3.0515 3.08274H3.39678C4.04579 3.08274 4.57178 3.60873 4.57178 4.25774C4.57178 4.90663 4.04579 5.43274 3.39678 5.43274H3.0515C2.40249 5.43274 1.8765 4.90663 1.8765 4.25774C1.8765 3.60879 2.40249 3.08274 3.0515 3.08274Z" fill="#F5810B"/>
<path d="M3.05122 7.33801C3.35701 7.33801 3.6574 7.45745 3.8823 7.68222C7.84575 11.6456 13.949 12.7794 19.0694 10.5035C19.6624 10.2399 20.3569 10.507 20.6204 11.1C20.884 11.693 20.6168 12.3873 20.0239 12.6509C17.1023 13.9495 13.8877 14.3403 10.7275 13.7811C8.36234 13.3626 6.15392 12.4299 4.22645 11.0475V39.6668C9.56659 44.6492 17.965 44.5385 23.1693 39.3345C23.6282 38.8756 24.3721 38.8757 24.831 39.3345C30.0352 44.5386 38.4335 44.6493 43.7738 39.6668V14.8026C43.7738 14.1536 44.2998 13.6276 44.9488 13.6276C45.5977 13.6276 46.1238 14.1536 46.1238 14.8026V40.1652C46.1238 40.4769 46 40.7757 45.7796 40.9961C42.7598 44.0158 38.745 45.6788 34.4744 45.6788C30.5848 45.6788 26.9068 44.299 24.0001 41.7713C21.0935 44.2989 17.4152 45.6788 13.5258 45.6788C13.5256 45.6788 13.5261 45.6788 13.5258 45.6788C9.25522 45.6788 5.24036 44.0158 2.22055 40.9961C2.00024 40.7757 1.87645 40.4769 1.87645 40.1652V8.51313C1.87645 8.03784 2.16274 7.60937 2.60178 7.42748C2.74713 7.36727 2.89988 7.33801 3.05122 7.33801Z" fill="#F5810B"/>
<path d="M28.4069 33.8176C28.5676 33.8176 28.7309 33.8508 28.887 33.9208C28.9948 33.9691 29.1046 34.0167 29.2136 34.0621C29.8124 34.3121 30.0953 35.0001 29.8453 35.599C29.5954 36.1979 28.9072 36.4808 28.3084 36.2308C28.1806 36.1774 28.0518 36.1217 27.9255 36.0651C27.3333 35.7995 27.0686 35.1043 27.3342 34.5121C27.5297 34.0762 27.9582 33.8176 28.4069 33.8176Z" fill="#F5810B"/>
<path d="M40.5425 33.8174C40.9912 33.8174 41.4197 34.0757 41.6152 34.5116C41.8809 35.1037 41.6163 35.799 41.0243 36.0647C38.2044 37.3301 35.0929 37.7489 32.0259 37.276C31.3846 37.177 30.9448 36.5769 31.0437 35.9356C31.1426 35.2943 31.7429 34.8546 32.384 34.9534C35.0019 35.3571 37.6569 35 40.0621 33.9207C40.2183 33.8505 40.3817 33.8174 40.5425 33.8174Z" fill="#F5810B"/>
<path d="M28.4068 25.6022C28.5676 25.6022 28.7309 25.6353 28.8871 25.7055C31.2927 26.7849 33.9482 27.1419 36.5664 26.7379C37.2077 26.6388 37.8079 27.0786 37.9069 27.72C38.0058 28.3613 37.5662 28.9614 36.9248 29.0604C33.8574 29.5338 30.7452 29.115 27.9251 27.8495C27.333 27.5838 27.0684 26.8885 27.334 26.2965C27.5296 25.8606 27.9581 25.6022 28.4068 25.6022Z" fill="#F5810B"/>
<path d="M40.5425 25.6021C40.9912 25.6021 41.4197 25.8604 41.6152 26.2963C41.8809 26.8884 41.6163 27.5837 41.0242 27.8494C40.8967 27.9067 40.7672 27.9627 40.6396 28.016C40.0407 28.2658 39.3526 27.9829 39.1027 27.384C38.8529 26.7851 39.1358 26.097 39.7347 25.8471C39.8433 25.8018 39.9535 25.7541 40.0622 25.7054C40.2183 25.6352 40.3817 25.6021 40.5425 25.6021Z" fill="#F5810B"/>
<path d="M28.4068 17.387C28.5676 17.387 28.7311 17.4202 28.8874 17.4904C28.9952 17.5388 29.1047 17.5863 29.2127 17.6313C29.8115 17.8812 30.0944 18.5693 29.8445 19.1682C29.5946 19.767 28.9065 20.0499 28.3076 19.8C28.1805 19.747 28.0518 19.6912 27.925 19.6343C27.333 19.3686 27.0685 18.6732 27.3342 18.0811C27.5299 17.6454 27.9583 17.387 28.4068 17.387Z" fill="#F5810B"/>
<path d="M40.5424 17.3868C40.9911 17.3868 41.4195 17.6452 41.6151 18.081C41.8808 18.6731 41.6162 19.3684 41.0241 19.6341C38.2036 20.8999 35.0912 21.3186 32.0232 20.8449C31.3819 20.7459 30.9423 20.1458 31.0413 19.5044C31.1403 18.8631 31.7403 18.4235 32.3818 18.5224C35.0004 18.9267 37.6562 18.5697 40.062 17.4901C40.2182 17.42 40.3816 17.3868 40.5424 17.3868Z" fill="#F5810B"/>
<path d="M19.5933 33.8176C20.0421 33.8176 20.4706 34.0761 20.6661 34.5121C20.9317 35.1042 20.6669 35.7995 20.0749 36.0651C19.9485 36.1217 19.8196 36.1774 19.6919 36.2308C19.0931 36.4808 18.4049 36.1979 18.155 35.599C17.905 35.0002 18.1879 34.3121 18.7867 34.0621C18.8957 34.0167 19.0055 33.9691 19.1133 33.9208C19.2693 33.8508 19.4327 33.8176 19.5933 33.8176Z" fill="#F5810B"/>
<path d="M7.45768 33.8174C7.61853 33.8174 7.78186 33.8505 7.93813 33.9207C10.3433 35 12.9983 35.3571 15.6161 34.9534C16.2574 34.8545 16.8576 35.2942 16.9564 35.9356C17.0554 36.5769 16.6156 37.1771 15.9743 37.2759C12.9073 37.7489 9.79569 37.3301 6.97593 36.0647C6.38385 35.799 6.11935 35.1037 6.38496 34.5116C6.58054 34.0758 7.009 33.8174 7.45768 33.8174Z" fill="#F5810B"/>
<path d="M19.5934 25.6022C20.0422 25.6022 20.4705 25.8605 20.6662 26.2964C20.9318 26.8885 20.6672 27.5838 20.0751 27.8495C17.2549 29.115 14.1429 29.5338 11.0754 29.0604C10.434 28.9614 9.99441 28.3613 10.0933 27.72C10.1923 27.0786 10.7924 26.639 11.4337 26.7379C14.0519 27.1419 16.7075 26.7849 19.113 25.7055C19.2693 25.6353 19.4327 25.6022 19.5934 25.6022Z" fill="#F5810B"/>
<path d="M7.45768 25.6021C7.61854 25.6021 7.78187 25.6352 7.93803 25.7053C8.04683 25.7541 8.15699 25.8018 8.2655 25.8471C8.86445 26.0969 9.14733 26.785 8.89753 27.3839C8.64761 27.9828 7.95947 28.2657 7.36063 28.0159C7.23303 27.9626 7.1036 27.9066 6.976 27.8493C6.38403 27.5837 6.11942 26.8884 6.38503 26.2963C6.58055 25.8605 7.00901 25.6021 7.45768 25.6021Z" fill="#F5810B"/>
<path d="M19.5933 17.387C20.042 17.387 20.4703 17.6453 20.666 18.0811C20.9317 18.6732 20.6672 19.3685 20.0752 19.6343C19.9485 19.6912 19.8197 19.7469 19.6925 19.8C19.0937 20.0499 18.4056 19.767 18.1558 19.1682C17.9057 18.5693 18.1887 17.8812 18.7876 17.6313C18.8955 17.5862 19.005 17.5388 19.1128 17.4904C19.2691 17.4203 19.4326 17.387 19.5933 17.387Z" fill="#F5810B"/>
<path d="M7.45773 17.3868C7.61859 17.3868 7.78192 17.42 7.93819 17.4901C10.3439 18.5697 12.9997 18.9267 15.6184 18.5224C16.2598 18.4235 16.86 18.8631 16.9588 19.5044C17.0579 20.1457 16.6183 20.746 15.977 20.8449C12.909 21.3186 9.79663 20.8999 6.97604 19.6341C6.38396 19.3685 6.11947 18.6731 6.38508 18.081C6.5806 17.6452 7.00906 17.3868 7.45773 17.3868Z" fill="#F5810B"/>
</svg>
