<svg width="47" height="48" viewBox="0 0 47 48" fill="none" xmlns="http://www.w3.org/2000/svg">
<path d="M23.4999 28.2975V32.2141C17.0106 32.2141 11.7499 37.4748 11.7499 43.9641H7.83325C7.83325 35.3116 14.8475 28.2975 23.4999 28.2975ZM23.4999 26.3391C17.008 26.3391 11.7499 21.081 11.7499 14.5891C11.7499 8.09725 17.008 2.83913 23.4999 2.83913C29.9918 2.83913 35.2499 8.09725 35.2499 14.5891C35.2499 21.081 29.9918 26.3391 23.4999 26.3391ZM23.4999 22.4225C27.8278 22.4225 31.3333 18.917 31.3333 14.5891C31.3333 10.2612 27.8278 6.75579 23.4999 6.75579C19.172 6.75579 15.6666 10.2612 15.6666 14.5891C15.6666 18.917 19.172 22.4225 23.4999 22.4225ZM35.2499 42.985L29.4946 46.0108L30.5938 39.6019L25.9375 35.0633L32.3721 34.1284L35.2499 28.2975L38.1277 34.1284L44.5624 35.0633L39.9061 39.6019L41.0053 46.0108L35.2499 42.985Z" fill="#F5810B"/>
</svg>
