<svg width="47" height="48" viewBox="0 0 47 48" fill="none" xmlns="http://www.w3.org/2000/svg">
<g clip-path="url(#clip0_217_4469)">
<path d="M47 6.02142V2.34955H24.9688V0.880798H22.0312V2.34955H0V6.02142H2.20312V29.9259H0V33.5978H47V29.9259H44.7969V6.02142H47ZM5.14062 29.9259V6.02142H41.8594V29.9259H5.14062Z" fill="#F5810B"/>
<path d="M24.9688 34.662H22.0312V47.8808H24.9688V34.662Z" fill="#F5810B"/>
<path d="M10.3982 47.8808H13.3357L19.4775 34.662H16.54L10.3982 47.8808Z" fill="#F5810B"/>
<path d="M27.5226 34.662L33.6644 47.8808H36.6019L30.4601 34.662H27.5226Z" fill="#F5810B"/>
<path d="M22.0098 15.0032C20.9082 13.6742 19.2401 12.8215 17.3797 12.8215C17.3009 12.8215 17.2105 12.8215 17.1101 12.828C17.1086 12.828 17.1086 12.828 17.1058 12.828C17.1043 12.828 17.103 12.828 17.1001 12.828V12.8287C13.9202 12.9779 11.3843 15.6005 11.3828 18.8185C11.3843 22.1296 14.0693 24.8154 17.3797 24.8161C20.6917 24.8154 23.3766 22.1296 23.3781 18.8185C23.3781 17.369 22.8603 16.0401 22.0112 15.0053L22.0098 15.0032ZM20.9813 15.4944L17.4084 18.6987V13.9137C18.8184 13.9209 20.0863 14.5313 20.9813 15.4944Z" fill="#F5810B"/>
<path d="M35.6172 13.1887H26.8047V15.3919H35.6172V13.1887Z" fill="#F5810B"/>
<path d="M35.6172 17.595H26.8047V19.7981H35.6172V17.595Z" fill="#F5810B"/>
<path d="M32.6797 22.0012H26.8047V24.2044H32.6797V22.0012Z" fill="#F5810B"/>
</g>
<defs>
<clipPath id="clip0_217_4469">
<rect width="47" height="47" fill="white" transform="translate(0 0.880798)"/>
</clipPath>
</defs>
</svg>
