<svg width="82" height="82" viewBox="0 0 82 82" fill="none" xmlns="http://www.w3.org/2000/svg">
<rect width="82" height="82" rx="41" fill="#F5810B"/>
<path d="M39.559 34.0043H59.7552C59.9623 34.0043 60.131 33.8357 60.131 33.6285V32.4285C60.131 32.2214 59.9624 32.0527 59.7552 32.0527H39.559C39.3519 32.0527 39.1832 32.2213 39.1832 32.4285V33.6285C39.1832 33.8357 39.3519 34.0043 39.559 34.0043Z" fill="white"/>
<path d="M37.8467 52.508C38.2795 52.9408 38.5167 53.5168 38.5158 54.1295C38.5158 54.9638 39.595 55.6955 40.8245 55.6955C42.0548 55.6955 43.1332 54.9638 43.1332 54.1303C43.1324 53.5168 43.3703 52.9408 43.8024 52.508C44.2328 52.0768 44.8049 51.8396 45.4138 51.8396H64.1838V26.3478C64.1838 25.051 63.1327 24 61.836 24H19.7912C18.4944 24 17.4434 25.051 17.4434 26.3478V51.8396H36.2353C36.8449 51.8396 37.417 52.0768 37.8467 52.508ZM61.1091 46.1171H44.0059C43.4656 46.1171 43.0276 45.679 43.0276 45.1388C43.0276 44.5986 43.4656 44.1605 44.0059 44.1605H61.1091C61.6493 44.1605 62.0873 44.5986 62.0873 45.1388C62.0873 45.679 61.6494 46.1171 61.1091 46.1171ZM61.1091 42.204H44.0059C43.4656 42.204 43.0276 41.766 43.0276 41.2258C43.0276 40.6855 43.4656 40.2475 44.0059 40.2475H61.1091C61.6493 40.2475 62.0873 40.6855 62.0873 41.2258C62.0873 41.766 61.6494 42.204 61.1091 42.204ZM37.2265 32.4285C37.2265 31.1425 38.2728 30.0962 39.5589 30.0962H59.755C61.0411 30.0962 62.0873 31.1425 62.0873 32.4285V33.6285C62.0873 34.9145 61.0411 35.9608 59.755 35.9608H39.5589C38.2728 35.9608 37.2265 34.9145 37.2265 33.6285V32.4285ZM38.2048 40.2475H39.8222C40.3624 40.2475 40.8005 40.6855 40.8005 41.2258C40.8005 41.766 40.3624 42.204 39.8222 42.204H38.2048C37.6646 42.204 37.2265 41.766 37.2265 41.2258C37.2265 40.6855 37.6646 40.2475 38.2048 40.2475ZM38.2048 44.1605H39.8222C40.3624 44.1605 40.8005 44.5986 40.8005 45.1388C40.8005 45.679 40.3624 46.1171 39.8222 46.1171H38.2048C37.6646 46.1171 37.2265 45.679 37.2265 45.1388C37.2265 44.5986 37.6646 44.1605 38.2048 44.1605ZM32.373 45.1388L32.3585 44.9562C32.3029 44.2581 31.8917 43.6376 31.2704 43.3146L29.9689 42.6378C29.2983 42.289 28.877 41.597 28.8746 40.8414C29.5961 40.2801 30.1538 39.3156 30.4062 38.2967C30.4231 38.2996 30.4403 38.3012 30.4576 38.3012C30.7281 38.3012 30.9474 37.9372 30.9493 37.6194C31.0668 37.483 31.143 37.2797 31.143 37.0927C31.143 36.7738 30.9227 36.5154 30.6512 36.5154C30.6026 36.5154 30.5558 36.524 30.5115 36.5394L30.5115 36.5391H30.5121C30.5121 36.5391 30.8157 36.2832 30.6996 35.2237C30.5835 34.1641 29.9659 33.7577 29.9659 33.7577C30.2482 33.4965 29.9659 33.09 29.9659 33.09C29.8399 33.203 29.3712 33.2213 28.7918 33.2032C28.899 32.8431 28.4626 32.6307 28.4626 32.6307C28.4186 32.7596 28.1514 32.9438 27.781 33.1504C26.9714 33.098 26.1861 33.0375 25.9099 33.09C25.3003 33.2061 24.8649 33.7577 24.5165 34.6866C24.257 35.3789 24.3842 36.1675 24.4659 36.5246C24.4383 36.519 24.41 36.5154 24.381 36.5154C24.1094 36.5154 23.8892 36.7738 23.8892 37.0927C23.8892 37.2798 23.9654 37.483 24.0829 37.6194C24.0849 37.9372 24.3042 38.3012 24.5745 38.3012C24.6046 38.3012 24.6339 38.296 24.6624 38.2876C24.9138 39.3099 25.4727 40.2784 26.1963 40.8414C26.194 41.5969 25.7727 42.2889 25.102 42.6378L23.8005 43.3146C23.1792 43.6377 22.7679 44.2581 22.7124 44.9562L22.6979 45.1388C21.3551 43.5754 20.5181 41.3681 20.5181 38.9216C20.518 34.1817 23.6598 30.3391 27.5353 30.3391C31.4108 30.3391 34.5527 34.1817 34.5527 38.9217C34.5527 41.3681 33.7158 43.5755 32.373 45.1388Z" fill="white"/>
<path d="M65.2788 53.7964H45.4027C45.2212 53.7964 45.0785 53.9455 45.0788 54.1271C45.0788 54.1282 45.0788 54.1293 45.0788 54.1305C45.0788 56.0754 43.1692 57.6522 40.8136 57.6522C38.4579 57.6522 36.5484 56.0754 36.5484 54.1305C36.5484 54.1293 36.5484 54.1282 36.5484 54.1271C36.5486 53.9455 36.4061 53.7964 36.2244 53.7964H16.3484C14.9044 53.7964 13.8027 55.0875 14.0297 56.5135L14.2699 58.0215C14.4515 59.1612 15.4345 60 16.5886 60H65.0386C66.1928 60 67.1758 59.1611 67.3573 58.0214L67.5973 56.5135C67.8245 55.0875 66.7227 53.7964 65.2788 53.7964ZM19.3702 57.8765H18.4216C17.8814 57.8765 17.4434 57.4386 17.4434 56.8982C17.4434 56.3579 17.8814 55.92 18.4216 55.92H19.3702C19.9104 55.92 20.3484 56.3579 20.3484 56.8982C20.3484 57.4385 19.9105 57.8765 19.3702 57.8765ZM63.2055 57.8765H62.257C61.7167 57.8765 61.2787 57.4386 61.2787 56.8982C61.2787 56.3579 61.7167 55.92 62.257 55.92H63.2055C63.7457 55.92 64.1837 56.3579 64.1837 56.8982C64.1837 57.4385 63.7458 57.8765 63.2055 57.8765Z" fill="white"/>
</svg>
