<svg width="82" height="83" viewBox="0 0 82 83" fill="none" xmlns="http://www.w3.org/2000/svg">
<rect y="0.5" width="82" height="82" rx="41" fill="#F5810B"/>
<g clip-path="url(#clip0_217_2505)">
<path d="M39.3818 36.5688L32.0706 35.6825L27.3583 32.5505C27.7776 32.6536 28.9355 32.9904 30.1724 33.4744C30.0261 32.9703 29.7573 32.5047 29.3837 32.1223C28.784 31.5087 27.9641 31.1602 27.1062 31.1541L24.1472 31.1329C22.3585 31.12 20.9026 32.5707 20.9075 34.3584L20.9374 45.2683C20.9397 46.1241 21.283 46.9435 21.8911 47.5456C22.3202 47.9702 22.8563 48.2613 23.4352 48.3941H19.3919L16.6506 34.4482C16.4812 33.5865 15.6453 33.0255 14.7838 33.1947C13.9221 33.3641 13.3609 34.1999 13.5303 35.0615L16.5239 50.291C16.6705 51.0366 17.3242 51.5743 18.0841 51.5743H22.4154V57.082L17.5058 59.7706C16.9924 60.0519 16.804 60.696 17.0852 61.2095C17.3664 61.7231 18.0104 61.9114 18.5241 61.6301L23.4756 58.9187L28.4271 61.6301C28.9408 61.9115 29.5849 61.7228 29.866 61.2095C30.1473 60.6961 29.9589 60.0519 29.4454 59.7706L24.5357 57.082V51.5743H29.2145C30.0926 51.5743 30.8045 50.8624 30.8045 49.9842C30.8045 49.4523 30.5425 48.9827 30.1414 48.694L31.6207 49.0389V59.4912C31.6207 60.7642 32.6527 61.7963 33.9257 61.7963C35.1987 61.7963 36.2307 60.7642 36.2307 59.4912V47.2094C36.2307 46.1378 35.4925 45.2077 34.449 44.9644L30.1493 43.9621L30.2033 40.6517L25.8029 36.1296L30.3237 39.1343C30.5734 39.3002 30.8582 39.4055 31.1559 39.4414L38.9197 40.3825C39.9764 40.5102 40.9304 39.7569 41.0577 38.7067C41.1852 37.6537 40.435 36.6966 39.3818 36.5688Z" fill="white"/>
<path d="M28.1276 29.6827C30.469 29.6827 32.3671 27.7846 32.3671 25.4432C32.3671 23.1017 30.469 21.2036 28.1276 21.2036C25.7862 21.2036 23.8881 23.1017 23.8881 25.4432C23.8881 27.7846 25.7862 29.6827 28.1276 29.6827Z" fill="white"/>
<path d="M66.0514 41.5461H37.6583C36.8582 41.5461 36.2096 42.1948 36.2096 42.9949C36.2096 43.795 36.8582 44.4436 37.6583 44.4436H38.3629V60.2079C38.3629 61.085 39.0739 61.7962 39.9512 61.7962H39.9575C40.8347 61.7962 41.5459 61.0851 41.5459 60.2079V44.4436H62.2571V60.2079C62.2571 61.085 62.9682 61.7962 63.8455 61.7962H63.8518C64.729 61.7962 65.4402 61.0851 65.4402 60.2079V44.4436H66.051C66.8511 44.4436 67.4998 43.795 67.4998 42.9949C67.5001 42.1948 66.8514 41.5461 66.0514 41.5461Z" fill="white"/>
<path d="M56.1681 38.0259H54.0072V30.6373L55.8262 26.1851C56.0476 25.6432 55.7878 25.0243 55.2458 24.8029C54.704 24.5814 54.085 24.8414 53.8636 25.3832C52.259 29.3104 51.2758 31.7168 49.6871 35.6049C49.4658 36.1469 49.7256 36.7658 50.2675 36.9871C50.8098 37.2086 51.4284 36.9485 51.6497 36.4068L51.8871 35.8259V39.0859C51.8871 39.6713 52.3616 40.1458 52.9471 40.1458H56.168C56.7535 40.1458 57.228 39.6712 57.228 39.0859C57.2281 38.5004 56.7535 38.0259 56.1681 38.0259Z" fill="white"/>
<path d="M47.777 38.1516H43.699C43.1135 38.1516 42.639 38.6261 42.639 39.2116C42.639 39.797 43.1135 40.2715 43.699 40.2715H47.777C48.3624 40.2715 48.8369 39.797 48.8369 39.2116C48.8369 38.6261 48.3624 38.1516 47.777 38.1516Z" fill="white"/>
</g>
<defs>
<clipPath id="clip0_217_2505">
<rect width="54" height="54" fill="white" transform="translate(13.5 14.5)"/>
</clipPath>
</defs>
</svg>
