<svg width="82" height="82" viewBox="0 0 82 82" fill="none" xmlns="http://www.w3.org/2000/svg">
<rect width="82" height="82" rx="41" fill="#F5810B"/>
<g clip-path="url(#clip0_217_2526)">
<path d="M65.25 41C65.2595 39.0238 64.8652 37.0665 64.0914 35.2481C63.3176 33.4296 62.1806 31.7884 60.75 30.425V21.875C60.75 21.2783 60.5129 20.706 60.091 20.284C59.669 19.8621 59.0967 19.625 58.5 19.625H18C17.4033 19.625 16.831 19.8621 16.409 20.284C15.9871 20.706 15.75 21.2783 15.75 21.875V60.125C15.75 60.7217 15.9871 61.294 16.409 61.716C16.831 62.1379 17.4033 62.375 18 62.375H42.75V64.175C42.75 66.425 45 67.6625 46.4625 66.2L50.625 62.375L54.7875 66.2C56.25 67.6625 58.5 66.425 58.5 64.175V53.2625C60.5678 51.9535 62.271 50.1428 63.4511 47.9988C64.6313 45.8549 65.2501 43.4473 65.25 41ZM50.625 30.875C52.6275 30.875 54.5851 31.4688 56.2501 32.5814C57.9152 33.6939 59.2129 35.2752 59.9793 37.1253C60.7456 38.9754 60.9461 41.0112 60.5554 42.9753C60.1648 44.9393 59.2005 46.7434 57.7845 48.1595C56.3684 49.5755 54.5643 50.5398 52.6003 50.9305C50.6362 51.3211 48.6004 51.1206 46.7503 50.3543C44.9002 49.5879 43.3189 48.2902 42.2064 46.6251C41.0938 44.9601 40.5 43.0025 40.5 41C40.5 38.3147 41.5667 35.7394 43.4655 33.8405C45.3643 31.9417 47.9397 30.875 50.625 30.875ZM27 29.75H41.2875L39.375 31.6625C38.7103 32.4539 38.1437 33.3227 37.6875 34.25H27C26.4033 34.25 25.831 34.0129 25.409 33.591C24.9871 33.169 24.75 32.5967 24.75 32C24.75 31.4033 24.9871 30.831 25.409 30.409C25.831 29.9871 26.4033 29.75 27 29.75ZM27 38.75H36.225C36.0338 39.4838 35.9579 40.2429 36 41C35.9631 41.757 36.039 42.5153 36.225 43.25H27C26.4033 43.25 25.831 43.0129 25.409 42.591C24.9871 42.169 24.75 41.5967 24.75 41C24.75 40.4033 24.9871 39.831 25.409 39.409C25.831 38.9871 26.4033 38.75 27 38.75ZM27 52.25C26.4033 52.25 25.831 52.0129 25.409 51.591C24.9871 51.169 24.75 50.5967 24.75 50C24.75 49.4033 24.9871 48.831 25.409 48.409C25.831 47.9871 26.4033 47.75 27 47.75H37.6875C38.1437 48.6773 38.7103 49.5461 39.375 50.3375C39.9552 51.0298 40.5952 51.6698 41.2875 52.25H27Z" fill="white"/>
<path d="M50.625 46.625C53.7316 46.625 56.25 44.1066 56.25 41C56.25 37.8934 53.7316 35.375 50.625 35.375C47.5184 35.375 45 37.8934 45 41C45 44.1066 47.5184 46.625 50.625 46.625Z" fill="white"/>
</g>
<defs>
<clipPath id="clip0_217_2526">
<rect width="54" height="54" fill="white" transform="translate(13.5 14)"/>
</clipPath>
</defs>
</svg>
