<svg width="82" height="82" viewBox="0 0 82 82" fill="none" xmlns="http://www.w3.org/2000/svg">
<rect width="82" height="82" rx="41" fill="#F5810B"/>
<path d="M59.0938 18H20.9062C18.473 18 16.5 19.9729 16.5 22.4062V60.5938C16.5 63.0271 18.473 65 20.9062 65H59.0938C61.5271 65 63.5 63.0271 63.5 60.5938V22.4062C63.5 19.9729 61.5271 18 59.0938 18ZM57.3188 21.2129C58.282 21.2129 59.0629 21.9939 59.0629 22.957C59.0629 23.9202 58.282 24.7012 57.3188 24.7012C56.3556 24.7012 55.5746 23.9202 55.5746 22.957C55.5746 21.9939 56.3556 21.2129 57.3188 21.2129ZM50.8471 21.2129C51.8103 21.2129 52.5912 21.9939 52.5912 22.957C52.5912 23.9202 51.8103 24.7012 50.8471 24.7012C49.884 24.7012 49.1029 23.9202 49.1029 22.957C49.1029 21.9939 49.884 21.2129 50.8471 21.2129ZM44.3754 21.2129C45.3386 21.2129 46.1195 21.9939 46.1195 22.957C46.1195 23.9202 45.3386 24.7012 44.3754 24.7012C43.4123 24.7012 42.6313 23.9202 42.6313 22.957C42.6313 21.9939 43.4123 21.2129 44.3754 21.2129ZM59.8281 60.5938C59.8281 60.9982 59.4989 61.3281 59.0938 61.3281H20.9062C20.5011 61.3281 20.1719 60.9982 20.1719 60.5938V27.5469H59.8281V60.5938Z" fill="white"/>
<path d="M34.7891 42.5455C35.0531 42.5455 35.266 42.3318 35.266 42.068C35.266 40.6974 36.3798 39.5823 37.7504 39.5823C38.0136 39.5823 38.2266 39.3693 38.2266 39.1054C38.2266 38.8415 38.0136 38.6292 37.7504 38.6292C35.8542 38.6292 34.313 40.1711 34.313 42.068C34.313 42.3318 34.5267 42.5455 34.7891 42.5455Z" fill="white"/>
<path d="M38.7951 51.5152C40.5127 51.5152 42.1163 51.016 43.4666 50.1526C44.5432 49.4656 45.459 48.5491 46.1453 47.4719C47.0072 46.1208 47.5072 44.5164 47.5072 42.7989C47.5072 37.9911 43.5994 34.0811 38.7951 34.0811C37.0775 34.0811 35.4739 34.5802 34.1235 35.4422C33.0464 36.1292 32.1313 37.0458 31.4449 38.1237C30.5828 39.4748 30.083 41.0791 30.083 42.7989C30.083 47.6031 33.9915 51.5152 38.7951 51.5152ZM33.2923 39.971C33.8833 38.8228 34.8235 37.8834 35.971 37.2924C36.8186 36.8549 37.7782 36.6075 38.7952 36.6075C42.2067 36.6075 44.9821 39.3843 44.9821 42.7988C44.9821 43.815 44.734 44.7753 44.298 45.623C43.707 46.7719 42.7669 47.7129 41.6201 48.3038C40.7725 48.7413 39.8122 48.9879 38.7952 48.9879C35.3844 48.9879 32.6075 46.2111 32.6075 42.7988C32.6074 41.7804 32.8548 40.8187 33.2923 39.971Z" fill="white"/>
<path d="M44.5612 51.2457L48.4144 55.0897C48.7845 55.4583 49.2679 55.644 49.7519 55.644C50.2375 55.644 50.7223 55.4583 51.0923 55.0897C51.8317 54.3496 51.8317 53.149 51.0923 52.4097L47.2391 48.5657C46.5226 49.6127 45.606 50.5286 44.5612 51.2457Z" fill="white"/>
</svg>
